<mxfile host="app.diagrams.net" agent="Mozilla/5.0 (Windows NT 10.0; Win64; x64) AppleWebKit/537.36 (KHTML, like Gecko) Chrome/140.0.0.0 Safari/537.36" version="28.2.5">
  <diagram name="Página-1" id="CIaIogjIpDlY5JIqvsKf">
    <mxGraphModel dx="1665" dy="777" grid="1" gridSize="10" guides="1" tooltips="1" connect="1" arrows="1" fold="1" page="1" pageScale="1" pageWidth="827" pageHeight="1169" math="0" shadow="0">
      <root>
        <mxCell id="0" />
        <mxCell id="1" parent="0" />
        <mxCell id="9pOInH8ip69j8aCvfSaU-10" value="" style="edgeStyle=orthogonalEdgeStyle;rounded=0;orthogonalLoop=1;jettySize=auto;html=1;" edge="1" parent="1" source="9pOInH8ip69j8aCvfSaU-1" target="9pOInH8ip69j8aCvfSaU-3">
          <mxGeometry relative="1" as="geometry" />
        </mxCell>
        <mxCell id="9pOInH8ip69j8aCvfSaU-1" value="Início" style="ellipse;whiteSpace=wrap;html=1;" vertex="1" parent="1">
          <mxGeometry x="340" y="10" width="120" height="80" as="geometry" />
        </mxCell>
        <mxCell id="9pOInH8ip69j8aCvfSaU-2" value="Fim" style="ellipse;whiteSpace=wrap;html=1;" vertex="1" parent="1">
          <mxGeometry x="340" y="730" width="120" height="80" as="geometry" />
        </mxCell>
        <mxCell id="9pOInH8ip69j8aCvfSaU-9" value="" style="edgeStyle=orthogonalEdgeStyle;rounded=0;orthogonalLoop=1;jettySize=auto;html=1;" edge="1" parent="1" source="9pOInH8ip69j8aCvfSaU-3" target="9pOInH8ip69j8aCvfSaU-4">
          <mxGeometry relative="1" as="geometry" />
        </mxCell>
        <mxCell id="9pOInH8ip69j8aCvfSaU-3" value="Ler N" style="shape=parallelogram;perimeter=parallelogramPerimeter;whiteSpace=wrap;html=1;fixedSize=1;" vertex="1" parent="1">
          <mxGeometry x="340" y="130" width="120" height="60" as="geometry" />
        </mxCell>
        <mxCell id="9pOInH8ip69j8aCvfSaU-6" value="Sim" style="edgeStyle=orthogonalEdgeStyle;rounded=0;orthogonalLoop=1;jettySize=auto;html=1;" edge="1" parent="1" source="9pOInH8ip69j8aCvfSaU-4" target="9pOInH8ip69j8aCvfSaU-5">
          <mxGeometry relative="1" as="geometry" />
        </mxCell>
        <mxCell id="9pOInH8ip69j8aCvfSaU-8" value="Não" style="edgeStyle=orthogonalEdgeStyle;rounded=0;orthogonalLoop=1;jettySize=auto;html=1;" edge="1" parent="1" source="9pOInH8ip69j8aCvfSaU-4" target="9pOInH8ip69j8aCvfSaU-7">
          <mxGeometry relative="1" as="geometry" />
        </mxCell>
        <mxCell id="9pOInH8ip69j8aCvfSaU-14" value="" style="edgeStyle=orthogonalEdgeStyle;rounded=0;orthogonalLoop=1;jettySize=auto;html=1;" edge="1" parent="1" source="9pOInH8ip69j8aCvfSaU-4">
          <mxGeometry relative="1" as="geometry">
            <mxPoint x="400" y="600" as="targetPoint" />
            <Array as="points">
              <mxPoint x="400" y="600" />
              <mxPoint x="400" y="600" />
            </Array>
          </mxGeometry>
        </mxCell>
        <mxCell id="9pOInH8ip69j8aCvfSaU-4" value="N&amp;gt;0" style="rhombus;whiteSpace=wrap;html=1;" vertex="1" parent="1">
          <mxGeometry x="360" y="240" width="80" height="80" as="geometry" />
        </mxCell>
        <mxCell id="9pOInH8ip69j8aCvfSaU-5" value="É positivo" style="shape=parallelogram;perimeter=parallelogramPerimeter;whiteSpace=wrap;html=1;fixedSize=1;" vertex="1" parent="1">
          <mxGeometry x="500" y="250" width="120" height="60" as="geometry" />
        </mxCell>
        <mxCell id="9pOInH8ip69j8aCvfSaU-7" value="É negativo" style="shape=parallelogram;perimeter=parallelogramPerimeter;whiteSpace=wrap;html=1;fixedSize=1;" vertex="1" parent="1">
          <mxGeometry x="180" y="250" width="120" height="60" as="geometry" />
        </mxCell>
        <mxCell id="9pOInH8ip69j8aCvfSaU-12" value="" style="edgeStyle=orthogonalEdgeStyle;rounded=0;orthogonalLoop=1;jettySize=auto;html=1;" edge="1" parent="1" source="9pOInH8ip69j8aCvfSaU-11" target="9pOInH8ip69j8aCvfSaU-2">
          <mxGeometry relative="1" as="geometry" />
        </mxCell>
        <mxCell id="9pOInH8ip69j8aCvfSaU-11" value="Digitou 0 - vai sair do programa" style="shape=parallelogram;perimeter=parallelogramPerimeter;whiteSpace=wrap;html=1;fixedSize=1;" vertex="1" parent="1">
          <mxGeometry x="340" y="610" width="120" height="60" as="geometry" />
        </mxCell>
      </root>
    </mxGraphModel>
  </diagram>
</mxfile>
